<svg t="1720603204997" class="icon" viewBox="0 0 1024 1024" version="1.1" xmlns="http://www.w3.org/2000/svg" p-id="6499" width="200" height="200"><path d="M776.151311 252.860185c9.900927 2.665113 20.344371 4.136689 31.330331 4.407947 80.468768 2.258225 131.736583 3.275444 153.803444 3.051656 34.809219-0.318728 52.461351 16.499285 52.963179 50.45404a1238.212662 1238.212662 0 0 1-4.950464 128.779867c-2.170066 23.735099-37.298013 19.394967-53.641324 18.784636a5.221722 5.221722 0 0 0-5.289537 4.340133 12176.173775 12176.173775 0 0 0-76.766092 493.825695c-2.576954 19.171179-6.672954 36.91147-12.274437 53.234437a14.342781 14.342781 0 0 1-13.562914 9.697483c-218.362914-0.271258-436.705483-0.250914-655.020927 0.067815-23.59947 0-43.33351-5.764238-47.063312-30.652185-26.542623-175.551576-53.397192-350.804768-80.563708-525.766358a4.00106 4.00106 0 0 0-4.068875-3.322914c-17.157086 0.406887-50.793113 5.221722-51.94596-21.090331A4182.002437 4182.002437 0 0 1 5.628609 310.706013c-0.406887-37.298013 21.497219-51.064371 57.303312-50.928741 60.585536 0.135629 120.825219 0.135629 180.725827 0a4.204503 4.204503 0 0 0 3.119471-6.984901 379.551364 379.551364 0 0 1-47.944901-68.357086c-16.004238-29.024636-2.441325-44.282914 16.885828-70.323709 28.848318-38.742464 52.603762-67.387338 71.273112-85.921059 27.261457-27.037669 59.676821-31.126887 97.246093-12.274438 13.067868 6.598358 35.107603 26.447682 66.119205 59.541193a5646.193589 5646.193589 0 0 0 62.050331 65.237615c1.763179 1.851338 3.458543 1.783523 5.086093-0.203443 41.461828-51.084715 81.309669-91.095311 119.557086-120.031788 27.898914-21.110675 54.997616-25.091391 81.309669-11.935365 12.030305 6.015152 27.783629 21.361589 47.266755 46.046093a1771.757351 1771.757351 0 0 0 53.302252 64.356027c15.868609 18.309934 27.736159 34.381987 17.835232 57.099867-13.562914 31.126887-36.687682 51.674702-61.44 73.375364a2.034437 2.034437 0 0 0 0.813774 3.458543z m-325.374304-34.721059l4.340132-1.017219c17.041801-4.157033 19.890013-12.932238 8.544636-26.312053a1202.487947 1202.487947 0 0 0-113.250331-115.962914c-3.980715-3.573828-7.778331-3.390728-11.392848 0.542517l-30.652185 33.364768c-3.797616 4.116344-3.30257 7.663046 1.49192 10.646888 38.383046 23.735099 63.81351 50.182781 100.501192 87.345165 11.297907 11.440318 24.772662 15.237934 40.417484 11.392848z m112.50437-24.616689a14.410596 14.410596 0 0 0 2.034438 17.021457c14.512318 15.258278 32.279735 4.679205 46.45298-7.323973 34.354861-29.248424 67.719629-56.102993 100.094304-80.563709 10.212874-7.730861 11.074119-16.363656 2.576954-25.905166l-14.173245-16.072053c-8.680265-9.812768-18.018331-10.511258-28.007417-2.102251-40.756556 34.246358-84.157881 71.069669-108.978014 114.945695z m184.794702-33.161324l-72.42596 62.050331a1.288477 1.288477 0 0 0-0.135629 1.830993l0.474702 0.542517c2.74649 3.214411 8.815894 3.35004 16.865483 0.386543s17.428344-8.781987 26.06114-16.187338l9.222781-7.934305c8.632795-7.39857 15.827921-15.773669 19.984954-23.280741 4.157033-7.507073 4.950464-13.522225 2.19041-16.729855l-0.406887-0.542516a1.288477 1.288477 0 0 0-1.830994-0.135629z m-400.10596 59.880264l-71.408742-53.980397a1.017219 1.017219 0 0 0-1.424105 0.203444l-0.474702 0.678146c-2.753272 3.628079-1.647894 9.934834 3.072 17.543629 4.713113 7.602013 12.66098 15.882172 22.087205 23.009483l1.966622 1.491921c9.439788 7.140874 19.584848 12.545695 28.197298 15.007364 8.61245 2.46845 14.98702 1.803868 17.713166-1.851338l0.474702-0.678146a1.017219 1.017219 0 0 0-0.203444-1.424106z m202.969007 102.128742a5.560795 5.560795 0 0 0-5.696424-5.628609l-65.169801 1.830993a5.560795 5.560795 0 0 0-5.425166 5.560795l-0.067814 65.101987a5.560795 5.560795 0 0 0 5.560794 5.560794l64.288212-0.135629a5.560795 5.560795 0 0 0 5.560795-5.49298l0.949404-66.797351z m267.189404 73.171921l120.845563 0.74596a5.899868 5.899868 0 0 0 5.967682-5.832053l1.017218-64.084768a1.939497 1.939497 0 0 0-0.576423-1.430888 2.068344 2.068344 0 0 0-1.458014-0.603549l-116.844503 0.203443-197.882914-0.74596a4.068874 4.068874 0 0 0-4.068874 4.00106l-0.678146 64.152583a3.899338 3.899338 0 0 0 1.146066 2.827867c0.74596 0.74596 1.776742 1.173192 2.848212 1.173192l189.677351-0.406887z m-411.620874-65.325775a5.899868 5.899868 0 0 0-5.906649-5.886305l-319.81351 0.55608a5.899868 5.899868 0 0 0-5.893086 5.91343l0.101721 58.727417c0.006781 3.255099 2.65155 5.899868 5.913431 5.886305l319.81351-0.556079a5.899868 5.899868 0 0 0 5.886304-5.913431l-0.101721-58.727417zM230.311841 459.965881l-95.550728 0.203444a2.265007 2.265007 0 0 0-1.763179 0.806993 2.414199 2.414199 0 0 0-0.542517 1.905589l76.020133 484.874172c0.176318 1.308821 0.922278 1.966623 2.23788 1.966623l77.30861 0.610331 117.047947 1.017219a3.187285 3.187285 0 0 0 3.255099-3.187285l0.339073-486.705166a2.848212 2.848212 0 0 0-2.848212-2.848212l-175.504106 1.356292z m318.931921 4.543576a4.475762 4.475762 0 0 0-4.475762-4.475762h-63.881325a4.475762 4.475762 0 0 0-4.475761 4.475762v481.890331c0 2.475232 2.00053 4.475762 4.475761 4.475762h63.881325a4.475762 4.475762 0 0 0 4.475762-4.475762v-481.890331z m156.583841 486.298278l95.957616-0.203444c3.255099-0.04747 5.153907-1.67502 5.696423-4.882649l76.155762-481.754702c0.406887-2.529483-0.657801-3.797616-3.187285-3.797615l-92.499073 0.067814-165.467549-0.610331a3.661987 3.661987 0 0 0-3.661987 3.661987l-3.526358 481.483443a5.086093 5.086093 0 0 0 5.018278 5.153908l85.514173 0.881589z" fill="#343333" p-id="6500"></path><path d="M450.777007 218.139126c-15.644821 3.845086-29.119576 0.04747-40.417484-11.392848-36.687682-37.162384-62.118146-63.610066-100.501192-87.345165-4.79449-2.983841-5.289536-6.530543-1.49192-10.646888l30.652185-33.364768c3.614517-3.933245 7.412132-4.116344 11.392848-0.542517a1202.487947 1202.487947 0 0 1 113.250331 115.962914c11.345377 13.379815 8.497166 22.15502-8.544636 26.312053l-4.340132 1.017219zM563.281377 193.522437c24.820132-43.876026 68.221457-80.699338 108.978014-114.945695 9.989086-8.409007 19.327152-7.710517 28.007417 2.102251l14.173245 16.072053c8.497166 9.54151 7.635921 18.174305-2.576954 25.905166-32.374675 24.460715-65.739444 51.315285-100.094304 80.563709-14.173245 12.003179-31.940662 22.582252-46.45298 7.323973a14.410596 14.410596 0 0 1-2.034438-17.021457zM748.076079 160.361113a1.288477 1.288477 0 0 1 1.830994 0.135629l0.406887 0.542516c2.753272 3.207629 1.966623 9.222781-2.19041 16.729855s-11.352159 15.882172-19.984954 23.280741l-9.222781 7.934305c-8.632795 7.405351-18.01155 13.223841-26.06114 16.187338-8.049589 2.963497-14.118993 2.827868-16.865483-0.386543l-0.474702-0.542517a1.288477 1.288477 0 0 1 0.135629-1.830993l72.42596-62.050331zM347.970119 220.241377a1.017219 1.017219 0 0 1 0.203444 1.424106l-0.474702 0.678146c-2.726146 3.655205-9.100715 4.319788-17.713166 1.851338s-18.75751-7.86649-28.197298-15.007364l-1.966622-1.491921c-9.426225-7.127311-17.374093-15.40747-22.087205-23.009483-4.719894-7.608795-5.832053-13.91555-3.072-17.543629l0.474702-0.678146a1.017219 1.017219 0 0 1 1.424105-0.203444l71.408742 53.980397zM550.939126 322.370119l-0.949404 66.797351a5.560795 5.560795 0 0 1-5.560795 5.49298l-64.288212 0.135629a5.560795 5.560795 0 0 1-5.560794-5.560794l0.067814-65.101987a5.560795 5.560795 0 0 1 5.425166-5.560795l65.169801-1.830993a5.560795 5.560795 0 0 1 5.696424 5.628609z" fill="#FCC556" p-id="6501"></path><path d="M827.080053 324.540185c2.170066 24.596344-0.813775 48.263629-8.951523 71.001855l-189.677351 0.406887a4.034967 4.034967 0 0 1-2.854994-1.173192 3.899338 3.899338 0 0 1-1.152847-2.827867l0.678145-64.152583a4.068874 4.068874 0 0 1 4.068875-4.00106l197.882914 0.74596z" fill="#FF5646" p-id="6502"></path><path d="M74.887368 324.897441m5.899859-0.010297l319.813023-0.55818q5.899859-0.010297 5.910155 5.889561l0.102499 58.727328q0.010297 5.899859-5.889561 5.910156l-319.813023 0.558179q-5.899859 0.010297-5.910156-5.889561l-0.102499-58.727328q-0.010297-5.899859 5.889562-5.910155Z" fill="#FF5646" p-id="6503"></path><path d="M827.080053 324.540185l116.844503-0.203443c0.549298 0 1.078252 0.217007 1.458014 0.603549a1.939497 1.939497 0 0 1 0.576423 1.430888l-1.017218 64.084768a5.899868 5.899868 0 0 1-5.967682 5.832053l-120.845563-0.74596c8.137748-22.738225 11.121589-46.40551 8.951523-71.001855z" fill="#CD4C3D" p-id="6504"></path><path d="M288.02204 950.333033a8990.285987 8990.285987 0 0 1-57.710199-490.367152l175.504106-1.356292a2.848212 2.848212 0 0 1 2.848212 2.848212l-0.339073 486.705166a3.187285 3.187285 0 0 1-3.255099 3.187285l-117.047947-1.017219z" fill="#FF5646" p-id="6505"></path><path d="M230.311841 459.965881a8990.285987 8990.285987 0 0 0 57.710199 490.367152l-77.30861-0.610331c-1.315603 0-2.061563-0.657801-2.23788-1.966623l-76.020133-484.874172a2.414199 2.414199 0 0 1 0.542517-1.905589 2.265007 2.265007 0 0 1 1.763179-0.806993l95.550728-0.203444z" fill="#FBD2BD" p-id="6506"></path><path d="M476.410914 460.033695m4.475761 0l63.881325 0q4.475762 0 4.475762 4.475762l0 481.890331q0 4.475762-4.475762 4.475762l-63.881325 0q-4.475762 0-4.475761-4.475762l0-481.890331q0-4.475762 4.475761-4.475762Z" fill="#FCC556" p-id="6507"></path><path d="M787.951046 460.237139c4.611391 3.390728 5.716768 12.884768 3.322914 28.482119-9.765298 62.748821-20.188397 125.389139-31.262516 187.914172a16493.466278 16493.466278 0 0 0-34.314172 200.052981c-4.340132 26.176424-11.596291 49.57245-19.869669 74.121324l-85.514173-0.881589a5.086093 5.086093 0 0 1-5.018278-5.153908l3.526358-481.483443a3.661987 3.661987 0 0 1 3.661987-3.661987l165.467549 0.610331z" fill="#FF5646" p-id="6508"></path><path d="M787.951046 460.237139l92.499073-0.067814c2.529483 0 3.594172 1.268132 3.187285 3.797615l-76.155762 481.754702c-0.542517 3.207629-2.441325 4.835179-5.696423 4.882649l-95.957616 0.203444c8.273377-24.548874 15.529536-47.944901 19.869669-74.121324 11.026649-66.777007 22.466967-133.459073 34.314172-200.052981 11.074119-62.525033 21.497219-125.165351 31.262516-187.914172 2.393854-15.597351 1.288477-25.091391-3.322914-28.482119z" fill="#CD4C3D" p-id="6509"></path></svg>